<?xml version="1.0" encoding="UTF-8" standalone="no"?>
<svg width="547px" height="263px" viewBox="0 0 547 263" version="1.1" xmlns="http://www.w3.org/2000/svg" xmlns:xlink="http://www.w3.org/1999/xlink" xmlns:sketch="http://www.bohemiancoding.com/sketch/ns">
    <!-- Generator: Sketch 3.5.2 (25235) - http://www.bohemiancoding.com/sketch -->
    <title>web copy</title>
    <desc>Created with Sketch.</desc>
    <defs>
        <path d="M10.4095902,35.0396557 L10.4095902,0 L0,0 L0,95.424645 C0.000235921451,95.5072913 0,95.5900405 0,95.6728926 C0,100.709445 0.871820642,105.36581 2.61548808,109.642127 C4.35915552,113.918445 6.78611569,117.624532 9.89644139,120.760498 C13.0067671,123.896464 16.7061141,126.343432 20.9945935,128.101474 C25.2830729,129.859515 29.9720542,130.738523 35.0616781,130.738523 C40.2455542,130.738523 44.981661,129.859515 49.2701403,128.101474 C53.5586197,126.343432 57.2579668,123.896464 60.3682925,120.760498 C63.4786182,117.624532 65.9055783,113.918445 67.6492458,109.642127 C69.3929132,105.36581 70.2647339,100.709445 70.2647339,95.6728926 C70.2647339,90.6363406 69.3929132,85.9799755 67.6492458,81.7036578 C65.9055783,77.42734 63.4786182,73.7212535 60.3682925,70.5852872 C57.2579668,67.4493208 53.5586197,65.0023535 49.2701403,63.2443117 C44.981661,61.48627 40.2455542,60.6072623 35.0616781,60.6072623 C29.9720542,60.6072623 25.2830729,61.48627 20.9945935,63.2443117 C20.3442641,63.5109112 19.7074826,63.7933535 19.0842487,64.0916388 L19.0842487,76.4066967 C20.8834167,74.9449835 22.9165106,73.7541289 25.1835634,72.8341111 C28.2013822,71.6094167 31.5010357,70.9970787 35.0826229,70.9970787 C38.7305358,70.9970787 42.0633516,71.6094167 45.0811704,72.8341111 C48.0989893,74.0588055 50.7022335,75.7634222 52.8909812,77.9480122 C55.0797289,80.1326022 56.7875898,82.7143517 58.014615,85.6933381 C59.2416402,88.6723245 59.8551437,91.916061 59.8551437,95.424645 C59.8551437,98.933229 59.2416402,102.176966 58.014615,105.155952 C56.7875898,108.134938 55.0797289,110.716688 52.8909812,112.901278 C50.7022335,115.085868 48.0989893,116.790484 45.0811704,118.015179 C42.0633516,119.239873 38.7305358,119.852211 35.0826229,119.852211 C31.5010357,119.852211 28.2013822,119.239873 25.1835634,118.015179 C22.1657446,116.790484 19.5625004,115.085868 17.3737527,112.901278 C15.1850049,110.716688 13.4771441,108.134938 12.2501189,105.155952 C11.0230936,102.176966 10.4095902,98.933229 10.4095902,95.424645 C10.4095902,94.7768511 10.4305037,94.1380855 10.4723309,93.5083475 L10.4095902,93.5083475 L10.4095902,35.0396557 Z" id="path-1"></path>
    </defs>
    <g id="Page-1" stroke="none" stroke-width="1" fill="none" fill-rule="evenodd" sketch:type="MSPage">
        <g id="web-copy" sketch:type="MSArtboardGroup">
            <g id="wordmark" sketch:type="MSLayerGroup" transform="translate(23.000000, 26.000000)">
                <path d="M493.137957,76.5731269 C488.045346,72.1714881 483.384382,69.9707017 479.154925,69.9707017 C476.479146,69.9707017 474.234979,70.7509805 472.422354,72.3115615 C470.60973,73.8721426 469.703432,75.7928289 469.703432,78.0736781 C469.703432,80.3545273 470.717623,82.3552422 472.746036,84.0758828 C474.774448,85.7965234 478.378064,87.9172812 483.556991,90.4382198 C488.735917,92.9591584 492.727946,95.7401521 495.533198,98.7812844 C498.33845,101.822417 499.741055,105.543746 499.741055,109.945385 C499.741055,115.547471 497.647937,120.269158 493.461638,124.110588 C489.275339,127.952019 484.118069,129.872705 477.989672,129.872705 C469.444444,129.872705 462.323527,126.511504 456.626707,119.789001 L463.359278,112.826443 C468.020312,117.868321 472.76759,120.389221 477.601255,120.389221 C480.881242,120.389221 483.686451,119.388864 486.016968,117.388119 C488.347485,115.387374 489.512726,113.046538 489.512726,110.36554 C489.512726,107.684541 488.455378,105.443741 486.34065,103.64307 C484.225921,101.8424 480.600727,99.7416492 475.464958,97.3407553 C470.32919,94.9398614 466.445053,92.2789105 463.812432,89.357823 C461.179811,86.4367354 459.86352,82.5953628 459.86352,77.8335899 C459.86352,73.071817 461.740853,69.0103657 465.495575,65.6491143 C469.250296,62.2878628 474.21336,60.6072623 480.384914,60.6072623 C486.556468,60.6072623 493.094765,63.7283775 500,69.9707017 L493.137957,76.5731269 Z" id="-s" fill="#43A5F8" sketch:type="MSShapeGroup"></path>
                <g id="u" transform="translate(417.114720, 94.872705) rotate(-180.000000) translate(-417.114720, -94.872705) translate(390.614720, 59.872705)" fill="#43A5F8" sketch:type="MSShapeGroup">
                    <path d="M-3.6561687e-10,25.974541 L10.4095902,25.974541 L10.4095895,69.2654426 L-3.6561687e-10,69.2654426 L-3.6561687e-10,25.974541 Z" id="Path"></path>
                    <path d="M41.6383608,25.974541 L52.047951,25.974541 L52.0479503,69.2654426 L41.6383608,69.2654426 L41.6383608,25.974541 Z" id="Path-Copy-2"></path>
                    <path d="M41.6383599,46.7560767 C47.9593067,42.0172486 52.047951,34.4724648 52.047951,25.974541 C52.047951,11.6291981 40.3966203,-2.59348099e-13 26.0239755,-2.59348099e-13 C11.6513307,-2.59348099e-13 4.40536496e-13,11.6291981 4.40536496e-13,25.974541 C4.40536496e-13,34.4724644 4.08864396,42.0172479 10.4095902,46.7560761 L10.4095902,26.0157265 C10.4095902,17.3857747 17.4003883,10.3898164 26.0239747,10.3898164 C34.6475612,10.3898164 41.6383592,17.3857747 41.6383592,26.0157265 C41.6383592,28.3624044 41.6383596,37.4882072 41.6383599,46.7560665 Z" id="Path"></path>
                </g>
                <g id="b" transform="translate(308.290047, 0.000000)">
                    <mask id="mask-2" sketch:name="Mask" fill="white">
                        <use xlink:href="#path-1"></use>
                    </mask>
                    <use id="Mask" fill="#43A5F8" sketch:type="MSShapeGroup" xlink:href="#path-1"></use>
                </g>
                <g id="i" transform="translate(278.796208, 36.364357)" fill="#43A5F8" sketch:type="MSShapeGroup">
                    <path d="M11.6855666,93.854518 L1.8859701,93.854518 L1.8859701,24.4984677 L11.6855666,24.4984677 L11.6855666,93.854518 Z" id="Path"></path>
                    <path d="M13.8794536,6.92654426 C13.8794536,8.94679644 13.1565726,10.6062644 11.710789,11.904998 C10.2650053,13.2037315 8.67466718,13.8530885 6.9397268,13.8530885 C5.20478643,13.8530885 3.61444827,13.2037315 2.16866463,11.904998 C0.72288098,10.6062644 0,8.94679644 0,6.92654426 C0,4.90629208 0.72288098,3.24682412 2.16866463,1.94809057 C3.61444827,0.649357031 5.20478643,0 6.9397268,0 C8.67466718,0 10.2650053,0.649357031 11.710789,1.94809057 C13.1565726,3.24682412 13.8794536,4.90629208 13.8794536,6.92654426 L13.8794536,6.92654426 Z" id="Path"></path>
                </g>
                <g id="n" transform="translate(211.133872, 60.607262)" fill="#43A5F8" sketch:type="MSShapeGroup">
                    <path d="M-3.6561687e-10,25.974541 L10.4095902,25.974541 L10.4095895,69.2654426 L-3.6561687e-10,69.2654426 L-3.6561687e-10,25.974541 Z" id="Path"></path>
                    <path d="M41.6383608,25.974541 L52.047951,25.974541 L52.0479503,69.2654426 L41.6383608,69.2654426 L41.6383608,25.974541 Z" id="Path-Copy-2"></path>
                    <path d="M41.6383599,46.7560767 C47.9593067,42.0172486 52.047951,34.4724648 52.047951,25.974541 C52.047951,11.6291981 40.3966203,0 26.0239755,0 C11.6513307,0 -1.24344979e-13,11.6291981 -1.24344979e-13,25.974541 C-1.24344979e-13,34.4724644 4.08864396,42.0172479 10.4095902,46.7560761 L10.4095902,26.0157265 C10.4095902,17.3857747 17.4003883,10.3898164 26.0239747,10.3898164 C34.6475612,10.3898164 41.6383592,17.3857747 41.6383592,26.0157265 C41.6383592,28.3624044 41.6383596,37.4882072 41.6383599,46.7560665 Z" id="Path"></path>
                </g>
                <g id="m" transform="translate(101.833175, 60.607262)" fill="#43A5F8" sketch:type="MSShapeGroup">
                    <path d="M-3.6561687e-10,25.974541 L10.4095902,25.974541 L10.4095895,69.2654426 L-3.6561687e-10,69.2654426 L-3.6561687e-10,25.974541 Z" id="Path"></path>
                    <path d="M83.2767216,25.974541 L93.6863118,25.974541 L93.6863111,69.2654426 L83.2767216,69.2654426 L83.2767216,25.974541 Z" id="Path-Copy"></path>
                    <path d="M41.6383608,25.974541 L52.047951,25.974541 L52.0479503,69.2654426 L41.6383608,69.2654426 L41.6383608,25.974541 Z" id="Path-Copy-2"></path>
                    <path d="M41.6383599,46.7560767 C47.9593067,42.0172486 52.047951,34.4724648 52.047951,25.974541 C52.047951,11.6291981 40.3966203,0 26.0239755,0 C11.6513307,0 3.37507799e-13,11.6291981 3.37507799e-13,25.974541 C3.37507799e-13,34.4724644 4.08864396,42.0172479 10.4095902,46.7560761 L10.4095902,26.0157265 C10.4095902,17.3857747 17.4003883,10.3898164 26.0239747,10.3898164 C34.6475612,10.3898164 41.6383592,17.3857747 41.6383592,26.0157265 C41.6383592,28.3624044 41.6383596,37.4882072 41.6383599,46.7560665 Z" id="Path"></path>
                    <path d="M83.2767207,46.7560768 C89.5976674,42.0172487 93.6863118,34.4724649 93.6863118,25.974541 C93.6863118,11.6291981 82.0349811,0 67.6623363,0 C53.2896915,0 41.6383608,11.6291981 41.6383608,25.974541 C41.6383608,34.4724644 45.7270048,42.0172479 52.047951,46.7560761 L52.047951,26.0157265 C52.047951,17.3857747 59.0387491,10.3898164 67.6623355,10.3898164 C76.285922,10.3898164 83.27672,17.3857747 83.27672,26.0157265 C83.27672,29.7280677 83.2767203,38.2497123 83.2767207,46.7560771 Z" id="Path"></path>
                </g>
                <g id="o" transform="translate(0.000000, 59.282114)" fill="#43A5F8" sketch:type="MSShapeGroup">
                    <path d="M12.484193,29.0313262 C7.37478362,18.4955928 0.0469332198,1.20602801 0.0469332198,1.20602801 C0.0469332198,1.20602801 16.9181259,1.35849503 28.0985772,1.32514782 C20.0064696,5.00758196 12.1956213,15.7254246 12.484193,29.0313262 L12.484193,29.0313262 Z" id="Triangle-1"></path>
                    <path d="M87.9406307,49.0008874 C86.1969632,53.2341838 83.7700031,56.9029857 80.6596774,60.0074031 C77.5493517,63.1118205 73.8500046,65.5341705 69.5615253,67.2745257 C65.2730459,69.0148809 60.5369391,69.8850455 55.353063,69.8850455 C50.2634391,69.8850455 45.5744578,69.0148809 41.2859784,67.2745257 C36.9974991,65.5341705 33.298152,63.1118205 30.1878263,60.0074031 C27.0775006,56.9029857 24.6505404,53.2341838 22.906873,49.0008874 C21.1632056,44.7675909 20.2913849,40.1580706 20.2913849,35.1721881 C20.2913849,30.1863056 21.1632056,25.5767853 22.906873,21.3434888 C24.6505404,17.1101923 27.0775006,13.4413904 30.1878263,10.336973 C33.298152,7.23255564 36.9974991,4.81020567 41.2859784,3.06985046 C45.5744578,1.32949525 50.2634391,0.459330693 55.353063,0.459330693 C60.5369391,0.459330693 65.2730459,1.32949525 69.5615253,3.06985046 C73.8500046,4.81020567 77.5493517,7.23255564 80.6596774,10.336973 C83.7700031,13.4413904 86.1969632,17.1101923 87.9406307,21.3434888 C89.6842981,25.5767853 90.5561188,30.1863056 90.5561188,35.1721881 C90.5561188,40.1580706 89.6842981,44.7675909 87.9406307,49.0008874 Z M78.3059999,45.0080203 C77.0789747,47.9870067 75.3711138,50.5687562 73.1823661,52.7533462 C70.9936184,54.9379362 68.3903742,56.6425529 65.3725554,57.8672473 C62.3547365,59.0919417 59.0219207,59.7042797 55.3740078,59.7042797 C51.7924207,59.7042797 48.4927672,59.0919417 45.4749483,57.8672473 C42.4571295,56.6425529 39.8538853,54.9379362 37.6651376,52.7533462 C35.4763899,50.5687562 33.768529,47.9870067 32.5415038,45.0080203 C31.3144785,42.0290339 30.7009751,38.7852974 30.7009751,35.2767134 C30.7009751,31.7681294 31.3144785,28.5243929 32.5415038,25.5454065 C33.768529,22.5664201 35.4763899,19.9846706 37.6651376,17.8000806 C39.8538853,15.6154906 42.4571295,13.9108739 45.4749483,12.6861795 C48.4927672,11.4614851 51.7924207,10.8491471 55.3740078,10.8491471 C59.0219207,10.8491471 62.3547365,11.4614851 65.3725554,12.6861795 C68.3903742,13.9108739 70.9936184,15.6154906 73.1823661,17.8000806 C75.3711138,19.9846706 77.0789747,22.5664201 78.3059999,25.5454065 C79.5330252,28.5243929 80.1465286,31.7681294 80.1465286,35.2767134 C80.1465286,38.7852974 79.5330252,42.0290339 78.3059999,45.0080203 Z"></path>
                    <path d="M55.4237518,52.4084127 C64.765971,52.4084127 72.3393359,44.8494339 72.3393359,35.524961 C72.3393359,26.2004882 64.765971,18.6415094 55.4237518,18.6415094 C46.0815327,18.6415094 38.5081678,26.2004882 38.5081678,35.524961 C38.5081678,44.8494339 46.0815327,52.4084127 55.4237518,52.4084127 Z" id="Oval-29"></path>
                </g>
            </g>
            <path d="M82.5,187.5 L507.5,187.5" id="Line" stroke="#43A5F8" stroke-width="3" stroke-linecap="square" sketch:type="MSShapeGroup"></path>
            <text id="Forward.-For-you.-Fo" sketch:type="MSTextLayer" font-family="Avenir Next" font-size="30" font-weight="420" fill="#43A5F8">
                <tspan x="126" y="239.261477">Forward. For you. For all.</tspan>
            </text>
        </g>
    </g>
</svg>