<?xml version="1.0" encoding="UTF-8" standalone="no"?>
<svg width="815px" height="213px" viewBox="0 0 815 213" version="1.1" xmlns="http://www.w3.org/2000/svg" xmlns:xlink="http://www.w3.org/1999/xlink" xmlns:sketch="http://www.bohemiancoding.com/sketch/ns">
    <!-- Generator: Sketch 3.5.2 (25235) - http://www.bohemiancoding.com/sketch -->
    <title>Wordmark</title>
    <desc>Created with Sketch.</desc>
    <defs>
        <path d="M16.967632,57.0868211 L16.967632,0 L0,0 L0,155.466414 C0.000384551966,155.601062 0,155.735878 0,155.870861 C0,164.076442 1.42106765,171.662621 4.26324557,178.629624 C7.1054235,185.596627 11.0613686,191.634605 16.1311995,196.743741 C21.2010304,201.852876 27.230966,205.839491 34.2211874,208.703703 C41.2114088,211.567915 48.8544483,213 57.1505352,213 C65.6002534,213 73.3201074,211.567915 80.3103288,208.703703 C87.3005501,205.839491 93.3304858,201.852876 98.4003167,196.743741 C103.470148,191.634605 107.426093,185.596627 110.268271,178.629624 C113.110449,171.662621 114.531516,164.076442 114.531516,155.870861 C114.531516,147.66528 113.110449,140.079101 110.268271,133.112098 C107.426093,126.145095 103.470148,120.107116 98.4003167,114.997981 C93.3304858,109.888845 87.3005501,105.902231 80.3103288,103.038019 C73.3201074,100.173807 65.6002534,98.7417219 57.1505352,98.7417219 C48.8544483,98.7417219 41.2114088,100.173807 34.2211874,103.038019 C33.1611505,103.472364 32.1231967,103.932521 31.1073254,104.418489 L31.1073254,124.482257 C34.0399693,122.100825 37.3539123,120.160677 41.0492084,118.661779 C45.968253,116.666499 51.3466883,115.668874 57.1846753,115.668874 C63.1307733,115.668874 68.5632631,116.666499 73.4823078,118.661779 C78.4013525,120.657058 82.6446406,123.43423 86.2122993,126.993377 C89.7799581,130.552525 92.5637713,134.758727 94.5638225,139.61211 C96.5638736,144.465493 97.5638842,149.750208 97.5638842,155.466414 C97.5638842,161.182621 96.5638736,166.467336 94.5638225,171.320719 C92.5637713,176.174102 89.7799581,180.380304 86.2122993,183.939451 C82.6446406,187.498599 78.4013525,190.275771 73.4823078,192.27105 C68.5632631,194.26633 63.1307733,195.263955 57.1846753,195.263955 C51.3466883,195.263955 45.968253,194.26633 41.0492084,192.27105 C36.1301637,190.275771 31.8868756,187.498599 28.3192168,183.939451 C24.7515581,180.380304 21.9677449,176.174102 19.9676937,171.320719 C17.9676426,166.467336 16.967632,161.182621 16.967632,155.466414 C16.967632,154.411025 17.0017211,153.370344 17.0698993,152.344371 L16.967632,152.344371 L16.967632,57.0868211 Z" id="path-1"></path>
    </defs>
    <g id="Page-1" stroke="none" stroke-width="1" fill="none" fill-rule="evenodd" sketch:type="MSPage">
        <g id="Wordmark" sketch:type="MSArtboardGroup" transform="translate(-18.000000, -22.000000)">
            <g id="wordmark" sketch:type="MSLayerGroup" transform="translate(3.000000, 22.000000)">
                <path d="M818.814869,124.753406 C810.513913,117.582229 802.916542,113.996694 796.022528,113.996694 C791.661009,113.996694 788.003015,115.267929 785.048438,117.810438 C782.09386,120.352946 780.616593,123.48214 780.616593,127.198113 C780.616593,130.914087 782.269725,134.173663 785.576038,136.976942 C788.882351,139.78022 794.756245,143.235371 803.197895,147.3425 C811.639545,151.449629 818.146553,155.980441 822.719113,160.935072 C827.291674,165.889703 829.57792,171.952516 829.57792,179.123693 C829.57792,188.250645 826.166137,195.943247 819.34247,202.201729 C812.518803,208.46021 804.112452,211.589404 794.123166,211.589404 C780.194443,211.589404 768.587348,206.113315 759.301533,195.160972 L770.275624,183.817531 C777.873109,192.031788 785.611172,196.138855 793.490046,196.138855 C798.836424,196.138855 803.408916,194.509066 807.207658,191.24944 C811.006401,187.989815 812.905744,184.17611 812.905744,179.808211 C812.905744,175.440312 811.182266,171.789586 807.735259,168.855923 C804.288252,165.92226 798.379185,162.499704 790.007882,158.588153 C781.636579,154.676602 775.305436,150.341365 771.014264,145.582311 C766.723092,140.823257 764.577538,134.564869 764.577538,126.80696 C764.577538,119.04905 767.63759,112.432109 773.757787,106.955938 C779.877983,101.479766 787.967777,98.7417219 798.02741,98.7417219 C808.087043,98.7417219 818.744466,103.826662 830,113.996694 L818.814869,124.753406 Z" id="-s" fill="#43A5F8" sketch:type="MSShapeGroup"></path>
                <g id="u" transform="translate(695.672913, 155.165563) rotate(-180.000000) translate(-695.672913, -155.165563) translate(653.253833, 98.741722)" fill="#43A5F8" sketch:type="MSShapeGroup">
                    <path d="M-5.95255401e-10,42.3178808 L16.967632,42.3178808 L16.9676308,112.847682 L-5.95255401e-10,112.847682 L-5.95255401e-10,42.3178808 Z" id="Path"></path>
                    <path d="M67.8705281,42.3178808 L84.8381601,42.3178808 L84.8381589,112.847682 L67.8705281,112.847682 L67.8705281,42.3178808 Z" id="Path-Copy-2"></path>
                    <path d="M67.8705267,76.1752858 C78.1736699,68.4547581 84.8381601,56.1627502 84.8381601,42.3178808 C84.8381601,18.9463606 65.8464911,-4.02938904e-13 42.4190801,-4.02938904e-13 C18.991669,-4.02938904e-13 -1.60650503e-13,18.9463606 -1.60650503e-13,42.3178808 C-1.60650503e-13,56.1627496 6.66448965,68.4547569 16.967632,76.1752847 L16.967632,42.3849806 C16.967632,28.3250103 28.3626329,16.9271523 42.4190788,16.9271523 C56.4755247,16.9271523 67.8705256,28.3250103 67.8705256,42.3849806 C67.8705256,46.2082025 67.8705261,61.0760161 67.8705267,76.175269 Z" id="Path"></path>
                </g>
                <g id="b" transform="translate(517.512777, 0.000000)">
                    <mask id="mask-2" sketch:name="Mask" fill="white">
                        <use xlink:href="#path-1"></use>
                    </mask>
                    <use id="Mask" fill="#43A5F8" sketch:type="MSShapeGroup" xlink:href="#path-1"></use>
                </g>
                <g id="i" transform="translate(469.437819, 59.245033)" fill="#43A5F8" sketch:type="MSShapeGroup">
                    <path d="M19.0474736,152.908354 L3.07413125,152.908354 L3.07413125,39.9130531 L19.0474736,39.9130531 L19.0474736,152.908354 Z" id="Path"></path>
                    <path d="M22.6235094,11.2847682 C22.6235094,14.5761754 21.4452134,17.2797907 19.088586,19.3956954 C16.7319587,21.5116 14.1397075,22.5695364 11.3117547,22.5695364 C8.48380187,22.5695364 5.89155068,21.5116 3.53492334,19.3956954 C1.178296,17.2797907 0,14.5761754 0,11.2847682 C0,7.99336103 1.178296,5.28974568 3.53492334,3.17384106 C5.89155068,1.05793644 8.48380187,0 11.3117547,0 C14.1397075,0 16.7319587,1.05793644 19.088586,3.17384106 C21.4452134,5.28974568 22.6235094,7.99336103 22.6235094,11.2847682 L22.6235094,11.2847682 Z" id="Path"></path>
                </g>
                <g id="n" transform="translate(359.148211, 98.741722)" fill="#43A5F8" sketch:type="MSShapeGroup">
                    <path d="M-5.95417049e-10,42.3178808 L16.967632,42.3178808 L16.9676308,112.847682 L-5.95417049e-10,112.847682 L-5.95417049e-10,42.3178808 Z" id="Path"></path>
                    <path d="M67.8705281,42.3178808 L84.8381601,42.3178808 L84.8381589,112.847682 L67.8705281,112.847682 L67.8705281,42.3178808 Z" id="Path-Copy-2"></path>
                    <path d="M67.8705267,76.1752858 C78.1736699,68.4547581 84.8381601,56.1627502 84.8381601,42.3178808 C84.8381601,18.9463606 65.8464911,0 42.4190801,0 C18.991669,0 -2.03283067e-13,18.9463606 -2.03283067e-13,42.3178808 C-2.03283067e-13,56.1627496 6.66448965,68.4547569 16.967632,76.1752847 L16.967632,42.3849806 C16.967632,28.3250103 28.3626329,16.9271523 42.4190788,16.9271523 C56.4755247,16.9271523 67.8705256,28.3250103 67.8705256,42.3849806 C67.8705256,46.2082025 67.8705261,61.0760161 67.8705267,76.175269 Z" id="Path"></path>
                </g>
                <g id="m" transform="translate(180.988075, 98.741722)" fill="#43A5F8" sketch:type="MSShapeGroup">
                    <path d="M-5.95658634e-10,42.3178808 L16.967632,42.3178808 L16.9676308,112.847682 L-5.95658634e-10,112.847682 L-5.95658634e-10,42.3178808 Z" id="Path"></path>
                    <path d="M135.741056,42.3178808 L152.708688,42.3178808 L152.708687,112.847682 L135.741056,112.847682 L135.741056,42.3178808 Z" id="Path-Copy"></path>
                    <path d="M67.8705281,42.3178808 L84.8381601,42.3178808 L84.8381589,112.847682 L67.8705281,112.847682 L67.8705281,42.3178808 Z" id="Path-Copy-2"></path>
                    <path d="M67.8705267,76.1752858 C78.1736699,68.4547581 84.8381601,56.1627502 84.8381601,42.3178808 C84.8381601,18.9463606 65.8464911,0 42.4190801,0 C18.991669,0 -3.61463633e-13,18.9463606 -3.61463633e-13,42.3178808 C-3.61463633e-13,56.1627496 6.66448965,68.4547569 16.967632,76.1752847 L16.967632,42.3849806 C16.967632,28.3250103 28.3626329,16.9271523 42.4190788,16.9271523 C56.4755247,16.9271523 67.8705256,28.3250103 67.8705256,42.3849806 C67.8705256,46.2082025 67.8705261,61.0760161 67.8705267,76.175269 Z" id="Path"></path>
                    <path d="M135.741055,76.1752858 C146.044198,68.4547582 152.708688,56.1627503 152.708688,42.3178808 C152.708688,18.9463606 133.717019,0 110.289608,0 C86.8621972,0 67.8705281,18.9463606 67.8705281,42.3178808 C67.8705281,56.1627496 74.5350178,68.4547569 84.8381601,76.1752847 L84.8381601,42.3849806 C84.8381601,28.3250103 96.233161,16.9271523 110.289607,16.9271523 C124.346053,16.9271523 135.741054,28.3250103 135.741054,42.3849806 C135.741054,48.4331495 135.741054,62.3166648 135.741055,76.1752863 Z" id="Path"></path>
                </g>
                <g id="o" transform="translate(0.000000, 77.582781)" fill="#43A5F8" sketch:type="MSShapeGroup">
                    <path d="M35.3492345,66.2980139 C27.0208973,49.1331328 15.0765011,20.9648682 15.0765011,20.9648682 C15.0765011,20.9648682 42.5765453,21.2132684 60.8006808,21.1589389 C47.6105455,27.1583831 34.8788628,44.6199579 35.3492345,66.2980139 L35.3492345,66.2980139 Z" id="Triangle-1"></path>
                    <path d="M158.343228,98.8325449 C155.50105,105.729457 151.545105,111.706692 146.475274,116.764428 C141.405443,121.822163 135.375508,125.768671 128.385286,128.604068 C121.395065,131.439465 113.675211,132.857143 105.225493,132.857143 C96.9294057,132.857143 89.2863662,131.439465 82.2961448,128.604068 C75.3059235,125.768671 69.2759878,121.822163 64.2061569,116.764428 C59.136326,111.706692 55.1803809,105.729457 52.338203,98.8325449 C49.4960251,91.9356325 48.0749574,84.4257738 48.0749574,76.3027436 C48.0749574,68.1797134 49.4960251,60.6698547 52.338203,53.7729423 C55.1803809,46.8760298 59.136326,40.8987954 64.2061569,35.8410596 C69.2759878,30.7833238 75.3059235,26.8368164 82.2961448,24.0014191 C89.2863662,21.1660218 96.9294057,19.7483444 105.225493,19.7483444 C113.675211,19.7483444 121.395065,21.1660218 128.385286,24.0014191 C135.375508,26.8368164 141.405443,30.7833238 146.475274,35.8410596 C151.545105,40.8987954 155.50105,46.8760298 158.343228,53.7729423 C161.185406,60.6698547 162.606474,68.1797134 162.606474,76.3027436 C162.606474,84.4257738 161.185406,91.9356325 158.343228,98.8325449 Z M142.63878,92.3273415 C140.638729,97.1807244 137.854916,101.386926 134.287257,104.946074 C130.719598,108.505221 126.47631,111.282393 121.557265,113.277673 C116.638221,115.272952 111.205731,116.270577 105.259633,116.270577 C99.4216457,116.270577 94.0432105,115.272952 89.1241658,113.277673 C84.2051211,111.282393 79.961833,108.505221 76.3941742,104.946074 C72.8265155,101.386926 70.0427023,97.1807244 68.0426511,92.3273415 C66.0426,87.4739587 65.0425894,82.1892433 65.0425894,76.4730369 C65.0425894,70.7568305 66.0426,65.4721151 68.0426511,60.6187323 C70.0427023,55.7653494 72.8265155,51.5591474 76.3941742,48 C79.961833,44.4408526 84.2051211,41.6636807 89.1241658,39.6684011 C94.0432105,37.6731215 99.4216457,36.6754967 105.259633,36.6754967 C111.205731,36.6754967 116.638221,37.6731215 121.557265,39.6684011 C126.47631,41.6636807 130.719598,44.4408526 134.287257,48 C137.854916,51.5591474 140.638729,55.7653494 142.63878,60.6187323 C144.638831,65.4721151 145.638842,70.7568305 145.638842,76.4730369 C145.638842,82.1892433 144.638831,87.4739587 142.63878,92.3273415 Z"></path>
                    <path d="M105.340716,104.384106 C120.568533,104.384106 132.913118,92.0689716 132.913118,76.8774834 C132.913118,61.6859953 120.568533,49.3708609 105.340716,49.3708609 C90.1128983,49.3708609 77.7683135,61.6859953 77.7683135,76.8774834 C77.7683135,92.0689716 90.1128983,104.384106 105.340716,104.384106 Z" id="Oval-29"></path>
                </g>
            </g>
        </g>
    </g>
</svg>